<svg id="Layer_1" data-name="Layer 1" xmlns="http://www.w3.org/2000/svg" viewBox="0 0 100 100"><defs><style>.cls-1{fill:#181818;}.cls-2{fill:#ebfbce;}</style></defs><rect class="cls-1" width="100" height="100"/><path class="cls-2" d="M95,50c-.73,0-1.46-.07-2.18-.13A46.84,46.84,0,0,1,50.18,7.21c-.06-.72-.1-1.45-.13-2.18,0,0,0,0,0,0s0,0,0,0c0,.73-.07,1.46-.13,2.18A46.84,46.84,0,0,1,7.21,49.82c-.72.06-1.45.1-2.18.13,0,0,0,0,0,0s0,0,0,0c.73,0,1.46.07,2.18.13A46.84,46.84,0,0,1,49.82,92.79c.06.72.1,1.45.13,2.18,0,0,0,0,0,0s0,0,0,0c0-.73.07-1.46.13-2.18A46.84,46.84,0,0,1,92.79,50.18c.72-.06,1.45-.1,2.18-.13,0,0,0,0,0,0S95,50,95,50Z"/></svg>